<?xml version="1.0" encoding="UTF-8" standalone="no"?>
<!-- Created with Inkscape (http://www.inkscape.org/) -->

<svg
   xmlns:dc="http://purl.org/dc/elements/1.1/"
   xmlns:cc="http://creativecommons.org/ns#"
   xmlns:rdf="http://www.w3.org/1999/02/22-rdf-syntax-ns#"
   xmlns:svg="http://www.w3.org/2000/svg"
   xmlns="http://www.w3.org/2000/svg"
   xmlns:sodipodi="http://sodipodi.sourceforge.net/DTD/sodipodi-0.dtd"
   xmlns:inkscape="http://www.inkscape.org/namespaces/inkscape"
   width="416.15497mm"
   height="248.64604mm"
   viewBox="0 0 1474.5649 881.02926"
   id="svg4173"
   version="1.1"
   inkscape:version="0.91 r13725"
   sodipodi:docname="maze.svg"
   inkscape:export-filename="/home/mlopez/git/d3/docs/visual/2017_erice/imgs/maze.png"
   inkscape:export-xdpi="300"
   inkscape:export-ydpi="300">
  <defs
     id="defs4175" />
  <sodipodi:namedview
     id="base"
     pagecolor="#ffffff"
     bordercolor="#666666"
     borderopacity="1.0"
     inkscape:pageopacity="0.0"
     inkscape:pageshadow="2"
     inkscape:zoom="0.18174854"
     inkscape:cx="1525.2564"
     inkscape:cy="-352.11546"
     inkscape:document-units="px"
     inkscape:current-layer="layer1"
     showgrid="false"
     inkscape:window-width="1551"
     inkscape:window-height="882"
     inkscape:window-x="49"
     inkscape:window-y="18"
     inkscape:window-maximized="1"
     fit-margin-top="0"
     fit-margin-left="0"
     fit-margin-right="0"
     fit-margin-bottom="0" />
  <metadata
     id="metadata4178">
    <rdf:RDF>
      <cc:Work
         rdf:about="">
        <dc:format>image/svg+xml</dc:format>
        <dc:type
           rdf:resource="http://purl.org/dc/dcmitype/StillImage" />
        <dc:title></dc:title>
      </cc:Work>
    </rdf:RDF>
  </metadata>
  <g
     inkscape:label="Layer 1"
     inkscape:groupmode="layer"
     id="layer1"
     transform="translate(2206.3451,991.91123)">
    <g
       transform="matrix(0.42138366,0,0,0.42138366,-2160.6854,-954.99635)"
       id="g3">
      <g
         id="g5">
        <polygon
           points="211.268,390.724 295.361,346.879 282.222,432.101 254.998,432.101 286.162,502.768 335.973,432.101 302.59,432.101 345.745,289.763 262.954,339.316 319.506,179.986 273.357,176.208 "
           id="polygon7" />
        <path
           inkscape:connector-curvature="0"
           d="M 583.039,505.265 323.646,54.154 C 315.929,40.786 305.87,33.403 295.342,33.403 c -10.729,0 -20.99,7.564 -28.908,21.286 L 7.032,505.007 c -7.908,13.692 -9.208,27.138 -3.586,36.873 5.508,9.533 16.935,14.783 32.207,14.783 l 518.766,0 c 15.31,0 26.756,-5.23 32.245,-14.717 5.573,-9.667 4.254,-23.026 -3.625,-36.681 z m -67.391,11.714 -441.367,0 c -15.591,0 -21.979,-11.053 -14.197,-24.562 L 281.042,108.838 c 7.781,-13.509 20.507,-13.505 28.278,0.011 l 220.546,383.556 c 7.771,13.516 1.374,24.574 -14.218,24.574 z"
           id="path9" />
      </g>
    </g>
    <g
       id="g4749"
       transform="matrix(0.23651524,0,0,0.23651524,-985.70532,-948.93295)">
      <g
         id="g4751"
         transform="matrix(0.1,0,0,-0.1,0,512)">
        <path
           id="path4753"
           d="M 5206.8,4993.9 C 5151.2,4953.6 638.6,29.4 621.4,-8.9 613.7,-26.2 608,-384.2 608,-803.5 c -1.9,-892.2 -7.7,-861.6 166.6,-949.6 63.2,-30.7 135.9,-82.3 162.7,-114.9 109.1,-130.2 107.2,-386.7 -1.9,-515 -28.7,-34.5 -99.6,-86.2 -157,-114.9 -180,-88.1 -172.3,-36.4 -172.3,-1139.2 0,-1045.4 1.9,-1054.9 113,-1112.4 30.6,-17.2 76.6,-30.6 101.5,-30.6 72.8,1.9 2027.5,775.4 2075.4,821.3 70.8,68.9 78.5,158.9 19.1,258.5 -95.7,162.7 -49.8,321.6 101.5,346.5 147.4,24.9 250.8,-57.4 250.8,-201 0,-36.4 21.1,-80.4 55.5,-118.7 47.9,-53.6 68.9,-63.2 139.8,-61.3 61.3,0 796.4,279.5 2887.1,1097.1 1543.1,603.1 2845,1112.4 2892.9,1133.4 160.8,70.8 151.3,-21.1 151.3,1434 l 0,1286.6 -65.1,65.1 c -49.8,49.8 -80.4,65.1 -134,65.1 -82.3,0 -174.2,42.1 -191.4,86.2 -5.7,17.2 -11.5,74.7 -11.5,126.4 0,116.8 59.3,189.5 153.2,189.5 91.9,0 185.7,47.9 218.3,113 26.8,47.9 30.6,147.4 30.6,622.2 l 0,566.7 -51.7,55.5 c -38.3,40.2 -566.7,298.7 -1834.2,897.9 -978.3,463.3 -1864.8,882.6 -1966.2,930.5 -195.5,93.9 -268.2,105.4 -335.2,59.5 z M 6995,3795.3 c 892.2,-423.1 1629.3,-773.5 1638.9,-781.1 9.6,-9.6 -6507.6,-2408.5 -7068.6,-2603.8 -15.3,-3.8 829,926.6 1876.3,2071.5 1047.3,1143 1908.8,2079.2 1916.5,2079.2 7.6,2 744.6,-344.6 1636.9,-765.8 z m 1996.8,-1386.1 0,-275.7 -101.4,-65.1 c -275.7,-176.1 -379.1,-478.6 -256.6,-744.8 53.6,-118.7 176.1,-250.8 289.1,-312.1 l 68.9,-38.3 -3.8,-1070.2 -5.8,-1072.2 -2686,-1049.1 -2686.2,-1047.3 -113,114.9 c -147.4,151.3 -252.7,199.1 -440.3,199.1 -168.5,0 -258.5,-40.2 -404,-176.1 -135.9,-128.3 -197.2,-264.2 -197.2,-444.2 l -1.9,-145.5 -698.8,-271.9 c -384.8,-151.3 -704.6,-273.8 -712.2,-273.8 -9.6,0 -15.3,319.7 -15.3,710.3 l 0,710.3 124.4,118.7 c 369.5,358 363.8,857.7 -15.3,1210 l -109.1,101.5 3.8,597.3 5.7,595.4 3963.2,1451.3 c 2180.7,798.4 3968.9,1453.2 3978.5,1453.2 7.6,1.9 13.3,-122.5 13.3,-275.7 z"
           inkscape:connector-curvature="0" />
        <path
           id="path4755"
           d="m 5331.2,3557.9 c -245.1,-90 -421.2,-329.3 -425,-574.4 -3.8,-310.2 296.8,-610.7 610.7,-610.7 147.4,0 294.8,65.1 415.5,185.7 118.7,120.6 176.1,241.2 183.8,400.2 7.7,107.2 0,145.5 -42.1,239.3 -105.3,229.7 -335,390.6 -557.1,386.7 -63.3,0 -147.5,-13.4 -185.8,-26.8 z m 331.2,-428.8 c 44,-44 55.5,-72.8 55.5,-135.9 0,-149.3 -59.3,-208.7 -206.8,-210.6 -141.7,0 -195.3,53.6 -195.3,197.2 0,147.4 55.5,202.9 206.8,204.9 67.1,-0.1 93.9,-11.6 139.8,-55.6 z"
           inkscape:connector-curvature="0" />
        <path
           id="path4757"
           d="M 5583.9,919.7 C 5396.3,868 5214.4,697.6 5143.6,508 c -103.4,-271.9 42.1,-587.8 335,-733.3 113,-55.5 135.9,-59.4 264.2,-51.7 170.4,11.5 306.3,76.6 417.4,202.9 224,254.7 222.1,549.5 -3.8,798.4 -160.9,174.3 -381,249 -572.5,195.4 z m 279.5,-440.4 c 44,-38.3 53.6,-61.3 53.6,-139.8 1.9,-122.5 -42.1,-193.4 -132.1,-210.6 -174.2,-32.6 -270,42.1 -266.1,210.6 1.9,126.4 63.2,183.8 199.1,183.8 70.9,0 107.3,-11.4 145.5,-44 z"
           inkscape:connector-curvature="0" />
        <path
           id="path4759"
           d="m 7586.5,712.9 c -216.3,-51.7 -465.2,-262.3 -568.6,-484.4 -183.8,-394.4 7.7,-857.7 442.3,-1062.6 91.9,-44.1 130.2,-49.8 296.8,-49.8 176.2,0 202.9,5.7 321.7,61.3 174.2,82.3 338.9,247 421.2,421.2 55.5,118.7 61.2,145.5 61.2,321.7 0,166.6 -5.7,204.9 -49.8,296.8 -176.1,373.3 -562.9,580 -924.8,495.8 z m 390.6,-438.4 c 216.4,-111 260.4,-471 78.5,-652.9 -179.9,-181.9 -541.8,-139.8 -651,76.6 -124.5,241.2 -23,530.3 210.6,606.9 105.4,32.5 262.4,21 361.9,-30.6 z"
           inkscape:connector-curvature="0" />
        <path
           id="path4761"
           d="m 2013.3,-142.9 c -143.6,-70.8 -260.4,-191.5 -327.4,-335 -208.7,-459.5 321.7,-987.9 779.2,-775.4 233.6,107.2 392.5,337 388.7,561 -1.9,149.3 -70.8,304.4 -187.6,419.3 -124.4,120.6 -241.2,172.3 -404,180 -116.8,5.6 -149.4,-2.1 -248.9,-49.9 z m 352.2,-377.2 c 67,-32.6 78.5,-61.3 78.5,-183.8 0,-132.1 -57.4,-189.6 -189.5,-189.6 -51.7,0 -109.1,5.7 -126.4,11.5 -45.9,19.1 -86.2,111 -86.2,199.1 0.1,157.1 170.5,243.2 323.6,162.8 z"
           inkscape:connector-curvature="0" />
        <path
           id="path4763"
           d="m 4249.5,-738.3 c -285.3,-105.3 -509.3,-369.5 -562.9,-664.4 -80.4,-436.5 344.6,-926.7 806,-926.7 463.3,0 886.4,490.1 804.1,934.3 -45.9,254.6 -247,509.3 -492,628 -149.3,70.8 -404,84.3 -555.2,28.8 z m 381,-384.9 c 95.7,-26.8 185.7,-105.3 227.8,-201 47.9,-101.5 45.9,-281.5 0,-384.8 -128.3,-281.4 -603.1,-281.4 -731.4,0 -42.1,93.8 -47.9,291 -9.6,381 74.7,174.2 298.7,264.2 513.2,204.8 z"
           inkscape:connector-curvature="0" />
      </g>
    </g>
    <path
       style="fill:#000000;fill-opacity:1;fill-rule:evenodd;stroke:#000000;stroke-width:21.06918335;stroke-linecap:butt;stroke-linejoin:miter;stroke-miterlimit:4;stroke-dasharray:none;stroke-opacity:1"
       d="m -2206.3451,-981.37664 1474.56485,0"
       id="path4777"
       inkscape:connector-curvature="0" />
    <path
       style="fill:#000000;fill-opacity:1;fill-rule:evenodd;stroke:#000000;stroke-width:21.06918335;stroke-linecap:butt;stroke-linejoin:miter;stroke-miterlimit:4;stroke-dasharray:none;stroke-opacity:1"
       d="m -2206.3451,-679.97188 585.4384,0 m 303.2937,0 585.83271,0"
       id="path4777-3"
       inkscape:connector-curvature="0"
       sodipodi:nodetypes="cccc" />
    <path
       style="fill:#000000;fill-opacity:1;fill-rule:evenodd;stroke:#000000;stroke-width:21.06918335;stroke-linecap:butt;stroke-linejoin:miter;stroke-miterlimit:4;stroke-dasharray:none;stroke-opacity:1"
       d="m -2195.8105,-677.65338 0,-310.67874"
       id="path4777-3-6"
       inkscape:connector-curvature="0"
       sodipodi:nodetypes="cc" />
    <path
       style="fill:#000000;fill-opacity:1;fill-rule:evenodd;stroke:#000000;stroke-width:21.06918335;stroke-linecap:butt;stroke-linejoin:miter;stroke-miterlimit:4;stroke-dasharray:none;stroke-opacity:1"
       d="m -742.31488,-675.33489 0,-310.67875"
       id="path4777-3-6-7"
       inkscape:connector-curvature="0"
       sodipodi:nodetypes="cc" />
    <g
       id="g4873"
       transform="matrix(0.42138366,0,0,0.42138366,-1276.6273,-575.82606)">
      <g
         transform="matrix(0,1,-1,0,-1065.9491,3551.8126)"
         id="g4854">
        <path
           style="fill:#000000;fill-opacity:1;fill-rule:evenodd;stroke:#000000;stroke-width:50;stroke-linecap:butt;stroke-linejoin:miter;stroke-miterlimit:4;stroke-dasharray:none;stroke-opacity:1"
           d="m -2448.4378,-251.63725 -1375.5267,-1e-5"
           id="path4777-3-6-7-5"
           inkscape:connector-curvature="0"
           sodipodi:nodetypes="cc" />
        <path
           style="fill:#000000;fill-opacity:1;fill-rule:evenodd;stroke:#000000;stroke-width:50;stroke-linecap:butt;stroke-linejoin:miter;stroke-miterlimit:4;stroke-dasharray:none;stroke-opacity:1"
           d="m -2448.4378,-966.91122 -1375.5268,-1e-5"
           id="path4777-3-6-7-5-3"
           inkscape:connector-curvature="0"
           sodipodi:nodetypes="cc" />
      </g>
      <path
         sodipodi:nodetypes="cc"
         inkscape:connector-curvature="0"
         id="path4777-5"
         d="m -829.817,1078.3748 752.787533,0"
         style="fill:#000000;fill-opacity:1;fill-rule:evenodd;stroke:#000000;stroke-width:50;stroke-linecap:butt;stroke-linejoin:miter;stroke-miterlimit:4;stroke-dasharray:none;stroke-opacity:1" />
    </g>
    <g
       id="g4934"
       transform="matrix(0.42138366,0,0,0.42138366,-1576.9369,-366.23724)">
      <g
         id="g4880">
        <g
           id="g4882">
          <path
             id="path4884"
             d="M 506.667,122.667 C 506.667,55.028 451.638,0 384,0 345.579,0 310.063,17.634 286.901,47.688 276.817,45.792 266.484,44.811 256,44.811 c -10.485,0 -20.818,0.981 -30.902,2.877 C 201.937,17.633 166.422,0 128,0 60.362,0 5.333,55.028 5.333,122.667 c 0,54.594 36.485,102.558 88.085,117.708 3.82,20.784 11.563,40.513 22.878,58.292 l -41.63,0 0,32 68.041,0 23.188,23.188 -41.366,9.193 6.942,31.237 61.245,-13.611 40.887,40.889 C 218.391,429.626 208,445.619 207.999,464 c 0.001,26.468 21.535,48 48,48 26.467,0 48,-21.532 48.001,-48.001 -10e-4,-18.38 -10.391,-34.372 -25.604,-42.434 l 40.89,-40.89 61.244,13.611 6.942,-31.237 -41.365,-9.193 23.188,-23.189 68.039,0 0,-32 -41.685,0 c 11.45,-18.057 19.057,-37.862 22.825,-58.249 51.727,-15.097 88.193,-62.918 88.193,-117.751 z M 90.741,205.343 C 58.903,190.943 37.333,158.767 37.333,122.667 37.333,72.673 78.006,32 128,32 c 24.118,0 46.686,9.408 63.431,25.854 -19.311,8.19 -37.059,20.101 -52.339,35.381 -30.094,30.093 -47.151,69.744 -48.351,112.108 z M 255.999,480 c -8.821,0 -16,-7.178 -16,-15.999 0,-8.823 7.18,-16.002 15.999,-16.003 8.822,0.001 16.002,7.181 16.002,16.001 0,8.823 -7.179,16.001 -16.001,16.001 z m 99.7,-181.333 -67.699,0 0,32 36.039,0 -14.96,14.96 -17.609,-3.912 -6.149,27.67 -29.321,29.321 -29.322,-29.323 -6.149,-27.669 -17.607,3.912 -14.96,-14.96 36.038,0 0,-32 -67.701,0 c -21.741,-24.422 -33.632,-55.556 -33.632,-88.523 0,-35.615 13.869,-69.098 39.052,-94.282 25.182,-25.182 58.666,-39.05 94.281,-39.05 35.615,0 69.097,13.869 94.281,39.052 50.108,50.11 51.911,130.507 5.418,182.804 z M 372.908,93.235 C 357.628,77.955 339.88,66.045 320.57,57.854 337.315,41.408 359.883,32 384,32 c 49.994,0 90.667,40.673 90.667,90.667 0,36.265 -21.574,68.365 -53.487,82.716 -1.163,-40.738 -17.249,-81.125 -48.272,-112.148 z"
             inkscape:connector-curvature="0" />
        </g>
      </g>
      <g
         id="g4886">
        <g
           id="g4888">
          <path
             id="path4890"
             d="m 218.667,234.667 c -11.759,0 -21.329,9.568 -21.333,21.333 0,11.763 9.569,21.333 21.331,21.333 l 0.002,0 c 11.763,0 21.333,-9.57 21.333,-21.333 0,-11.763 -9.57,-21.333 -21.333,-21.333 z"
             inkscape:connector-curvature="0" />
        </g>
      </g>
      <g
         id="g4892">
        <g
           id="g4894">
          <path
             id="path4896"
             d="m 293.333,234.667 c -11.759,0 -21.329,9.568 -21.333,21.333 0,11.763 9.569,21.333 21.331,21.333 l 0.002,0 c 11.763,0 21.333,-9.57 21.333,-21.333 0,-11.763 -9.569,-21.333 -21.333,-21.333 z"
             inkscape:connector-curvature="0" />
        </g>
      </g>
      <g
         id="g4898" />
      <g
         id="g4900" />
      <g
         id="g4902" />
      <g
         id="g4904" />
      <g
         id="g4906" />
      <g
         id="g4908" />
      <g
         id="g4910" />
      <g
         id="g4912" />
      <g
         id="g4914" />
      <g
         id="g4916" />
      <g
         id="g4918" />
      <g
         id="g4920" />
      <g
         id="g4922" />
      <g
         id="g4924" />
      <g
         id="g4926" />
    </g>
  </g>
</svg>
